<svg width="28" height="28" viewBox="0 0 28 28" fill="none" xmlns="http://www.w3.org/2000/svg">
<g clip-path="url(#clip0_2310_225)">
<path d="M24.5545 23.201C26.7767 20.6529 27.9916 17.4233 27.9916 14.006C27.9916 10.2726 26.5397 6.75659 23.8928 4.10967C21.2953 1.51214 17.8484 0.0602913 14.1743 0.0109086C14.115 -0.00884452 13.8484 -0.00884452 13.7891 0.0109086C10.1348 0.0602913 6.69773 1.51214 4.11008 4.10967C1.51255 6.70721 0.0606964 10.1442 0.0113137 13.8183C0.00143712 13.8677 0.00143712 14.085 0.0113137 14.1344C0.0409433 17.8183 1.4928 21.285 4.11008 23.8924C6.75699 26.5393 10.2632 27.9912 14.0064 27.9912C17.7397 27.9912 21.2558 26.5393 23.9027 23.8924C24.0903 23.7047 24.278 23.4973 24.4558 23.2998C24.4755 23.2899 24.4854 23.2702 24.5051 23.2504C24.5249 23.2405 24.5348 23.2208 24.5545 23.201ZM1.31502 14.6183H7.19156C7.23107 16.6726 7.47798 18.6084 7.8928 20.327C5.95699 20.8504 4.7323 21.5319 4.1002 21.9566C2.47057 19.9319 1.44341 17.3936 1.31502 14.6183ZM4.08045 6.07511C4.71255 6.4998 5.93724 7.19116 7.88292 7.71461C7.47798 9.41338 7.23107 11.3097 7.18168 13.3442H1.31502C1.45329 10.5986 2.47057 8.08992 4.08045 6.07511ZM26.6977 13.3344H20.8212C20.7817 11.3097 20.5348 9.4035 20.12 7.71461C22.0656 7.19116 23.2903 6.50967 23.9323 6.08498C25.5422 8.08992 26.5496 10.5986 26.6977 13.3344ZM19.5372 13.3344H14.6286V8.44548C16.2681 8.41585 17.6706 8.24795 18.8656 8.00103C19.2607 9.64054 19.4879 11.4479 19.5372 13.3344ZM14.6286 7.16153V1.38375C15.7842 1.70967 16.9101 2.92449 17.7891 4.83066C18.0656 5.42325 18.3125 6.07511 18.52 6.75659C17.4237 6.97387 16.1298 7.1319 14.6286 7.16153ZM13.3446 1.39362V7.15165C11.8533 7.12202 10.5693 6.97387 9.48292 6.75659C9.7002 6.07511 9.93724 5.43313 10.2138 4.83066C11.0928 2.94424 12.199 1.7393 13.3446 1.39362ZM13.3446 8.44548V13.3344H8.47551C8.51502 11.4479 8.75205 9.64054 9.13724 8.00103C10.3224 8.23807 11.7249 8.40597 13.3446 8.44548ZM8.47551 14.6183H13.3446V19.5961C11.7249 19.6356 10.3323 19.8035 9.14712 20.0405C8.74218 18.3813 8.51502 16.5344 8.47551 14.6183ZM13.3446 20.88V26.6183C12.199 26.2726 11.0928 25.0677 10.2138 23.1813C9.93724 22.5887 9.7002 21.9566 9.48292 21.285C10.5792 21.0677 11.8533 20.9196 13.3446 20.88ZM14.6286 26.6282V20.88C16.1298 20.9097 17.4237 21.0677 18.52 21.2751C18.3125 21.9467 18.0656 22.5887 17.7891 23.1813C16.9101 25.0776 15.7842 26.3023 14.6286 26.6282ZM14.6286 19.5961V14.6183H19.5372C19.4977 16.5344 19.2706 18.3714 18.8656 20.0307C17.6706 19.7936 16.2582 19.6257 14.6286 19.5961ZM20.8212 14.6183H26.6977C26.5693 17.3837 25.5422 19.9121 23.9224 21.9467C23.2805 21.522 22.0558 20.8405 20.12 20.3171C20.5249 18.5986 20.7817 16.6726 20.8212 14.6183ZM23.073 5.1072C22.5002 5.47264 21.4335 6.02572 19.7842 6.47017C19.1817 4.49486 18.3422 2.86523 17.3348 1.7393C19.5471 2.34177 21.5125 3.52696 23.073 5.1072ZM10.6681 1.7393C9.67057 2.86523 8.83107 4.49486 8.2286 6.47017C6.58909 6.02572 5.52242 5.46276 4.94959 5.1072C6.5002 3.51708 8.46563 2.34177 10.6681 1.7393ZM4.95946 22.9245C5.5323 22.5591 6.58909 22.006 8.2286 21.5615C8.83107 23.527 9.67057 25.1368 10.6681 26.2628C8.47551 25.6702 6.51996 24.5047 4.95946 22.9245ZM17.3348 26.2726C18.3323 25.1467 19.1718 23.527 19.7743 21.5714C21.4039 22.0158 22.4706 22.5591 23.0533 22.9245C21.5027 24.4949 19.5372 25.6702 17.3348 26.2726Z" fill="white"/>
</g>
<defs>
<clipPath id="clip0_2310_225">
<rect width="28" height="28" fill="white"/>
</clipPath>
</defs>
</svg>
