<svg width="52" height="50" viewBox="0 0 52 50" fill="none" xmlns="http://www.w3.org/2000/svg">
<path d="M22.8333 31.7647V20.2353L32.3333 26.0198L22.8333 31.7647ZM44.62 18.0398C44.62 18.0398 44.2479 15.2974 43.1095 14.0885C41.6639 12.5024 40.0442 12.4958 39.3016 12.4035C33.9848 12 26.0079 12 26.0079 12H25.9921C25.9921 12 18.0153 12 12.6984 12.4035C11.9542 12.4958 10.3361 12.5024 8.88892 14.0885C7.7505 15.2974 7.38 18.0414 7.38 18.0414C7.38 18.0414 7 21.2598 7 24.4798V27.5021C7 30.7238 7.38 33.9454 7.38 33.9454C7.38 33.9454 7.7505 36.6878 8.88892 37.8967C10.3361 39.4828 12.2345 39.4318 13.08 39.5981C16.12 39.9061 26 40 26 40C26 40 33.9848 39.9868 39.3016 39.5849C40.0458 39.4911 41.6639 39.4845 43.1095 37.8984C44.2495 36.6894 44.62 33.9454 44.62 33.9454C44.62 33.9454 45 30.7254 45 27.5038V24.4831C45 21.2614 44.62 18.0398 44.62 18.0398Z" fill="#FF0000"/>
</svg>
