<svg width="50" height="48" viewBox="0 0 50 48" fill="none" xmlns="http://www.w3.org/2000/svg">
<path d="M24.958 43.929C35.9287 43.929 44.8223 35.0354 44.8223 24.0647C44.8223 17.4196 41.5593 11.5364 36.548 7.93032C36.5842 7.65514 36.1856 4.0676 35.7899 4.00114C35.3941 3.93473 34.7241 6.79147 34.7241 6.82716C31.8191 5.16343 28.5456 4.20042 24.958 4.20042C13.9873 4.20047 5.09375 13.094 5.09375 24.0647C5.09375 35.0354 13.9873 43.929 24.958 43.929Z" fill="#FFD41B"/>
<path d="M24.9668 16.2339L32.8436 29.8768L32.8375 29.8803C33.7775 31.0999 34.3244 32.5597 34.3244 34.1286C34.3244 38.4031 30.2644 41.8683 25.256 41.8683C20.2476 41.8683 16.1875 38.4031 16.1875 34.1286C16.1875 29.854 20.2476 26.3888 25.256 26.3888C26.0054 26.3888 26.7337 26.4664 27.4302 26.6127L17.9051 10.1145C17.8029 10.0155 17.7217 9.897 17.6663 9.76601C17.611 9.63501 17.5825 9.49421 17.5827 9.35199C17.5827 8.76492 18.0586 8.289 18.6457 8.289C18.7165 8.289 18.7857 8.29594 18.8527 8.30917L20.4269 8.37041L20.434 8.38269C26.7409 8.31503 32.3086 6.60295 35.7555 4H35.7889C34.8044 8.27219 30.7984 12.9246 24.9668 16.2339Z" fill="#0DBC71"/>
</svg>
