<svg width="52" height="50" viewBox="0 0 52 50" fill="none" xmlns="http://www.w3.org/2000/svg">
<path d="M26 5C15 5 6 14 6 25C6 36 15 45 26 45C37 45 46 36 46 25C46 14 37.1 5 26 5Z" fill="#1ED75F"/>
<path d="M35.2007 33.9002C34.8007 34.5002 34.1007 34.7002 33.5007 34.3002C28.8007 31.4002 22.9007 30.8002 15.9007 32.4002C15.2007 32.6002 14.6007 32.1002 14.4007 31.5002C14.2007 30.8002 14.7007 30.2002 15.3007 30.0002C22.9007 28.3002 29.5007 29.0002 34.7007 32.2002C35.4007 32.5002 35.5007 33.3002 35.2007 33.9002ZM37.6007 28.4002C37.1007 29.1002 36.2007 29.4002 35.5007 28.9002C30.1007 25.6002 21.9007 24.6002 15.6007 26.6002C14.8007 26.8002 13.9007 26.4002 13.7007 25.6002C13.5007 24.8002 13.9007 23.9002 14.7007 23.7002C22.0007 21.5002 31.0007 22.6002 37.2007 26.4002C37.8007 26.7002 38.1007 27.7002 37.6007 28.4002ZM37.8007 22.8002C31.4007 19.0002 20.7007 18.6002 14.6007 20.5002C13.6007 20.8002 12.6007 20.2002 12.3007 19.3002C12.0007 18.3002 12.6007 17.3002 13.5007 17.0002C20.6007 14.9002 32.3007 15.3002 39.7007 19.7002C40.6007 20.2002 40.9007 21.4002 40.4007 22.3002C39.9007 23.0002 38.7007 23.3002 37.8007 22.8002Z" fill="#191515"/>
</svg>
