<svg width="52" height="50" viewBox="0 0 52 50" fill="none" xmlns="http://www.w3.org/2000/svg">
<path d="M36.2857 7H15.7143C11.4714 7 8 10.471 8 14.7134V35.2866C8 39.529 11.4714 43 15.7143 43H36.2857C40.5286 43 44 39.529 44 35.2866V14.7174C44.004 10.471 40.5326 7 36.2857 7ZM33.6661 31.3656C33.5777 31.7513 33.421 32.1128 33.1759 32.4342C32.9308 32.7556 32.6214 33.0248 32.2518 33.2176C31.8781 33.4225 31.4924 33.539 31.0826 33.6153C30.3112 33.7559 29.7728 33.7961 29.2826 33.7037C28.8085 33.6153 28.3946 33.4064 28.0612 33.1373C27.571 32.7275 27.2777 32.1731 27.2134 31.5946C27.1371 30.9116 27.3821 30.1925 27.9326 29.6542C28.2138 29.385 28.5634 29.164 29.0254 28.9993C29.5156 28.8185 30.054 28.7181 30.8777 28.5614C31.0946 28.5213 31.3156 28.4851 31.5326 28.4449C31.8138 28.3927 32.0589 28.3284 32.2638 28.0994C32.4687 27.8664 32.4687 27.5973 32.4687 27.3281V20.4503C32.4687 19.924 32.2116 19.7834 31.6732 19.8718C31.2875 19.9361 22.9665 21.4908 22.9665 21.4908C22.4924 21.5952 22.3357 21.7359 22.3357 22.2742V32.3539C22.3357 32.7516 22.3116 33.1011 22.2192 33.4988C22.1308 33.8845 21.9741 34.2461 21.729 34.5675C21.4839 34.8889 21.1746 35.158 20.8049 35.3509C20.4312 35.5557 20.0455 35.6722 19.6357 35.7486C18.8643 35.8892 18.3259 35.9294 17.8357 35.837C17.3616 35.7486 16.9478 35.5397 16.6143 35.2585C16.1241 34.8487 15.8549 34.2943 15.7786 33.7158C15.7022 33.0328 15.9192 32.3137 16.4737 31.7754C16.7549 31.5062 17.1045 31.2852 17.5665 31.1205C18.0567 30.9397 18.5951 30.8393 19.4187 30.6826C19.6357 30.6425 19.8567 30.6063 20.0737 30.5661C20.3549 30.5139 20.6 30.4496 20.8049 30.2206C20.9978 30.0037 21.0219 29.7305 21.0219 29.4613V17.8631C21.0219 17.7104 21.0339 17.606 21.046 17.5537C21.0862 17.3087 21.1866 17.1038 21.3795 16.9511C21.5321 16.8226 21.7411 16.7462 22.0103 16.694L32.0268 14.8179C32.1152 14.8058 32.8384 14.6773 32.9147 14.6773C33.4531 14.6371 33.7625 14.9585 33.7625 15.5008V30.2246C33.7545 30.6224 33.7545 30.9679 33.6661 31.3656Z" fill="#FF2F56"/>
</svg>
