<svg preserveAspectRatio="none" width="100%" height="100%" overflow="visible" style="display: block;" viewBox="0 0 50 50" fill="none" xmlns="http://www.w3.org/2000/svg">
<g id="AppleMusic 2" clip-path="url(#clip0_0_26)">
<path id="Vector" d="M35.8571 6H14.1429C9.66429 6 6 9.66388 6 14.1419V35.8581C6 40.3361 9.66429 44 14.1429 44H35.8571C40.3357 44 44 40.3361 44 35.8581V14.1462C44.0042 9.66388 40.34 6 35.8571 6ZM33.092 31.7192C32.9987 32.1263 32.8333 32.508 32.5746 32.8472C32.3158 33.1865 31.9893 33.4706 31.5991 33.6741C31.2047 33.8904 30.7975 34.0134 30.365 34.094C29.5507 34.2424 28.9824 34.2848 28.465 34.1873C27.9645 34.094 27.5277 33.8735 27.1757 33.5893C26.6583 33.1568 26.3487 32.5716 26.2808 31.9609C26.2002 31.24 26.4589 30.481 27.04 29.9127C27.3368 29.6286 27.7058 29.3954 28.1935 29.2215C28.7109 29.0307 29.2792 28.9247 30.1487 28.7593C30.3777 28.7169 30.6109 28.6787 30.84 28.6363C31.1368 28.5812 31.3955 28.5133 31.6118 28.2716C31.8281 28.0257 31.8281 27.7415 31.8281 27.4574V20.1975C31.8281 19.642 31.5567 19.4936 30.9884 19.5869C30.5812 19.6547 21.798 21.2958 21.798 21.2958C21.2975 21.4061 21.1321 21.5545 21.1321 22.1228V32.7624C21.1321 33.1822 21.1067 33.5512 21.0092 33.971C20.9158 34.3781 20.7504 34.7597 20.4917 35.099C20.233 35.4382 19.9065 35.7224 19.5163 35.9259C19.1219 36.1422 18.7147 36.2651 18.2821 36.3457C17.4679 36.4941 16.8996 36.5365 16.3821 36.439C15.8817 36.3457 15.4449 36.1252 15.0929 35.8284C14.5754 35.3958 14.2913 34.8106 14.2107 34.2C14.1301 33.4791 14.3592 32.72 14.9444 32.1518C15.2413 31.8676 15.6103 31.6344 16.098 31.4605C16.6154 31.2697 17.1837 31.1637 18.0531 30.9983C18.2821 30.9559 18.5154 30.9178 18.7444 30.8753C19.0413 30.8202 19.3 30.7524 19.5163 30.5107C19.7199 30.2817 19.7453 29.9933 19.7453 29.7092V17.4666C19.7453 17.3054 19.758 17.1952 19.7708 17.1401C19.8132 16.8814 19.9192 16.6651 20.1228 16.504C20.2839 16.3683 20.5045 16.2877 20.7886 16.2326L31.3616 14.2522C31.4549 14.2395 32.2183 14.1038 32.2989 14.1038C32.8672 14.0614 33.1937 14.4006 33.1937 14.9731V30.5149C33.1853 30.9347 33.1853 31.2994 33.092 31.7192Z" fill="var(--fill-0, #FF2F56)"/>
</g>
<defs>
<clipPath id="clip0_0_26">
<rect width="50" height="50" fill="white"/>
</clipPath>
</defs>
</svg>
