<svg width="48" height="48" viewBox="0 0 48 48" fill="none" xmlns="http://www.w3.org/2000/svg">
<path d="M17.5394 6H30.47C34.5051 6 36.0052 6.42002 37.4003 7.20005C38.8515 7.96748 40.038 9.15402 40.8054 10.6052C41.5854 12.0003 42.0055 13.5003 42.0055 17.5355V30.4661C42.0055 34.4712 41.5854 35.9263 40.8054 37.3964C40.038 38.8475 38.8515 40.0341 37.4003 40.8015C35.9002 41.5815 34.4751 42.0016 30.47 42.0016H17.5394C13.5042 42.0016 12.0042 41.5815 10.6091 40.8015C9.15792 40.0341 7.97139 38.8475 7.20396 37.3964C6.42392 36.0013 6.00391 34.5012 6.00391 30.4661V17.5355C6.00391 13.5003 6.42392 12.0003 7.20396 10.6052C7.97139 9.15402 9.15792 7.96748 10.6091 7.20005C12.0042 6.42002 13.5042 6 17.5394 6Z" fill="#D81E06"/>
<path d="M29.3255 10.6303C30.182 10.8405 30.9845 11.229 31.6806 11.7704C31.9443 11.9557 32.1519 12.21 32.2806 12.5054C32.3734 12.7314 32.4096 12.9766 32.3861 13.2197C32.3626 13.4628 32.28 13.6965 32.1456 13.9005C31.933 14.2325 31.5981 14.4675 31.2135 14.5545C30.8289 14.6416 30.4255 14.5737 30.0905 14.3655C29.9255 14.2605 29.8055 14.1105 29.6405 14.0205C29.2006 13.7104 28.6785 13.5381 28.1405 13.5255C27.7701 13.5655 27.4279 13.742 27.1804 14.0205C27.0578 14.1449 26.9677 14.2975 26.918 14.4649C26.8683 14.6323 26.8606 14.8094 26.8954 14.9805L27.4504 17.0656C28.783 17.1164 30.0821 17.4979 31.2306 18.1757C32.3449 18.8582 33.3258 19.7375 34.1257 20.7708C34.8093 21.668 35.3182 22.6857 35.6258 23.7709C35.9532 24.895 36.0801 26.0679 36.0008 27.236C35.9305 28.2186 35.7287 29.1873 35.4008 30.1162C34.5362 32.3939 32.9574 34.3306 30.9006 35.6364C29.3946 36.5766 27.6988 37.1709 25.9354 37.3765C24.7269 37.5558 23.4986 37.5558 22.2902 37.3765C19.7869 36.9412 17.4864 35.7227 15.7199 33.8963C14.201 32.3577 13.0931 30.462 12.4981 28.3835C11.9031 26.3049 11.8401 24.1101 12.3148 22.0008C12.7563 19.998 13.6779 18.1324 15.0001 16.5646C16.3223 14.9968 18.0055 13.7737 19.9051 13.0004C20.175 12.8932 20.465 12.8457 20.755 12.8612C21.045 12.8767 21.3283 12.9549 21.5852 13.0904C21.8054 13.2481 21.9789 13.4624 22.0872 13.7106C22.1955 13.9589 22.2345 14.2318 22.2002 14.5005C22.1684 14.7739 22.062 15.0332 21.8927 15.2502C21.7234 15.4671 21.4976 15.6333 21.2402 15.7306C19.6157 16.3494 18.1883 17.3951 17.1085 18.7574C16.0287 20.1196 15.3365 21.7481 15.1049 23.4709C14.8883 25.0812 15.0739 26.72 15.6449 28.2411C16.4609 30.4627 18.0616 32.3088 20.1451 33.4313C21.4095 34.089 22.8151 34.4288 24.2403 34.4214C25.4121 34.4146 26.5741 34.2066 27.6754 33.8063C29.5763 33.13 31.1585 31.7723 32.1156 29.9962C32.3547 29.5685 32.5459 29.1157 32.6857 28.6461C33.0799 27.284 33.0799 25.838 32.6857 24.4759C32.3373 23.3416 31.6772 22.328 30.7806 21.5508C30.39 21.2072 29.9682 20.9008 29.5205 20.6358C29.1251 20.4174 28.7009 20.2559 28.2605 20.1557C28.5605 21.3558 28.8905 22.5558 29.2055 23.7709L29.3555 24.6409C29.3962 25.855 29.0034 27.0439 28.2476 27.9948C27.4918 28.9458 26.4222 29.5967 25.2303 29.8312C23.9881 30.0795 22.698 29.8376 21.6302 29.1561C20.6353 28.4961 19.8864 27.5257 19.5001 26.396C19.2804 25.7632 19.159 25.1005 19.1401 24.4309C19.0615 22.9638 19.4616 21.5108 20.2801 20.2907C21.2939 18.8759 22.7682 17.8577 24.4503 17.4106L24.0903 16.0156C23.7864 15.0227 23.8667 13.9519 24.3153 13.0154C24.5793 12.4921 24.9467 12.0277 25.3953 11.6504C25.8527 11.2085 26.4003 10.8708 27.0004 10.6603C27.7594 10.4468 28.5612 10.4365 29.3255 10.6303Z" fill="white"/>
<path d="M22.9804 21.168C22.4603 21.7165 22.1015 22.3976 21.9432 23.1367C21.8106 23.8099 21.8106 24.5026 21.9432 25.1758C22.0763 25.9324 22.4908 26.6107 23.1034 27.0742C23.3575 27.2481 23.6449 27.3675 23.9474 27.425C24.2499 27.4825 24.561 27.4768 24.8612 27.4082C25.3996 27.3032 25.8875 27.0213 26.2474 26.6073C26.6073 26.1932 26.8185 25.6708 26.8475 25.123C26.8124 24.8504 26.7596 24.5803 26.6893 24.3145L25.4764 19.7266C24.533 19.9813 23.6726 20.4782 22.9804 21.168Z" fill="#D81E06"/>
</svg>
