<svg width="48" height="48" viewBox="0 0 48 48" fill="none" xmlns="http://www.w3.org/2000/svg">
<path d="M17.5394 6H30.47C34.5051 6 36.0052 6.42002 37.4003 7.20005C38.8515 7.96748 40.038 9.15402 40.8054 10.6052C41.5854 12.0003 42.0055 13.5003 42.0055 17.5355V30.4661C42.0055 34.4712 41.5854 35.9263 40.8054 37.3964C40.038 38.8475 38.8515 40.0341 37.4003 40.8015C35.9002 41.5815 34.4751 42.0016 30.47 42.0016H17.5394C13.5042 42.0016 12.0042 41.5815 10.6091 40.8015C9.15792 40.0341 7.97139 38.8475 7.20396 37.3964C6.42392 36.0013 6.00391 34.5012 6.00391 30.4661V17.5355C6.00391 13.5003 6.42392 12.0003 7.20396 10.6052C7.97139 9.15402 9.15792 7.96748 10.6091 7.20005C12.0042 6.42002 13.5042 6 17.5394 6Z" fill="black"/>
<path d="M22.9804 21.168C22.4603 21.7165 22.1015 22.3976 21.9432 23.1367C21.8106 23.8099 21.8106 24.5026 21.9432 25.1758C22.0763 25.9324 22.4908 26.6107 23.1034 27.0742C23.3575 27.2481 23.6449 27.3675 23.9474 27.425C24.2499 27.4825 24.561 27.4768 24.8612 27.4082C25.3996 27.3032 25.8875 27.0213 26.2474 26.6073C26.6073 26.1932 26.8185 25.6708 26.8475 25.123C26.8124 24.8504 26.7596 24.5803 26.6893 24.3145L25.4764 19.7266C24.533 19.9813 23.6726 20.4782 22.9804 21.168Z" fill="#D81E06"/>
<path d="M17.8164 27.4633C18.3734 27.7947 18.936 28.1161 19.5029 28.4292C19.7864 28.5857 20.071 28.7402 20.3564 28.893C21.213 29.3518 22.078 29.7945 22.9463 30.2309C23.525 30.5218 24.105 30.8102 24.6855 31.0971C26.0991 31.9411 27.5882 32.6427 29.0479 33.4008C28.74 33.8447 28.3882 34.2574 28.0176 34.6489L27.9961 34.6294C27.4223 35.1821 26.7568 35.6223 26.0449 35.9741C25.9266 35.8915 25.8069 35.8109 25.6865 35.7319C25.807 35.8109 25.9266 35.8914 26.0449 35.9741C23.9338 36.9752 21.3682 36.9858 19.2822 35.9135C17.0707 34.8517 15.4977 32.6523 15.1123 30.2397C15.3183 30.3334 15.5245 30.4279 15.7295 30.5239C15.5244 30.4278 15.3184 30.3335 15.1123 30.2397C15.0809 29.9193 15.0535 29.5982 15.0283 29.2778C13.7404 29.2255 12.419 29.423 11.1562 29.1801C12.6411 28.7864 14.1304 28.4157 15.6152 28.0219C16.344 27.8335 17.0728 27.6408 17.8037 27.4565L17.8164 27.4633ZM20.2715 12.4282C21.5008 12.4303 22.7326 12.4118 23.9619 12.437C24.2843 12.7384 24.634 13.0125 25.0381 13.1967C26.1648 13.7371 27.2769 14.3071 28.3994 14.8579C29.9764 15.7103 31.5182 16.6527 33.2041 17.2768L33.2246 17.2827C33.3084 17.6198 33.3964 17.9573 33.4844 18.2944C31.6101 18.2756 29.7337 18.3113 27.8594 18.2631C28.3954 18.1606 28.9419 18.1058 29.4863 18.0639C29.298 17.9358 29.1059 17.8142 28.9121 17.6958C29.1057 17.8141 29.2973 17.9359 29.4854 18.0639C28.9409 18.1058 28.3944 18.1605 27.8584 18.2631C28.0405 18.9185 28.2125 19.5779 28.3633 20.2417L28.3867 20.2475C28.5899 21.0328 28.8034 21.8163 28.9814 22.6079L29.0107 22.6206C29.2181 23.4645 29.4436 24.3022 29.6572 25.144C29.9106 26.101 30.1726 27.0561 30.3652 28.0278C31.9108 28.0383 33.4565 28.0071 35 28.0385C33.7937 28.47 32.5265 28.7046 31.293 29.0522C31.1569 28.9678 31.0184 28.8878 30.8799 28.8081C31.0187 28.888 31.1576 28.9687 31.2939 29.0532C30.0164 29.3925 28.7366 29.7213 27.457 30.0522L27.4551 30.0512C27.0703 30.1433 26.6896 30.2501 26.3174 30.3881C26.7907 30.3902 27.262 30.3844 27.7354 30.3969C28.5897 30.3739 29.4443 30.3894 30.3008 30.3852C30.1856 30.9002 30.0479 31.4091 29.8867 31.9116L29.8633 31.8881C29.8296 31.8432 29.7946 31.8001 29.7578 31.7592C29.7945 31.8001 29.8296 31.8432 29.8633 31.8881C29.6518 32.4222 29.3748 32.9271 29.0586 33.4067L29.0488 33.3999C27.5891 32.6417 26.0992 31.9402 24.6855 31.0962C22.3631 29.9485 20.0446 28.788 17.8164 27.4624C18.4278 27.2593 19.0581 27.1377 19.6904 27.0288C18.2371 26.8278 16.7605 26.9731 15.2988 26.9292C15.5837 25.9804 16.0444 25.0939 16.6309 24.3022C17.2507 23.5087 18.0238 22.8452 18.8906 22.3364C18.9284 22.3795 18.9678 22.4206 19.0078 22.4604C18.9676 22.4204 18.9285 22.3788 18.8906 22.3354C19.8602 21.8349 20.9471 21.3866 22.0381 21.4096C22.3615 21.6251 22.694 21.8254 23.0322 22.0141H23.0332C22.6948 21.8253 22.3627 21.6252 22.0391 21.4096C22.1711 21.3845 22.4365 21.3371 22.5684 21.312C22.3924 20.6104 22.2002 19.9123 22.041 19.2065H22.04L22.0234 19.2006C21.8224 18.4113 21.5943 17.6302 21.4268 16.8325L21.3936 16.8198C21.1716 15.7663 20.8008 14.7459 20.627 13.684L20.709 13.5922L20.5498 13.5112C20.4116 13.1636 20.3741 12.7863 20.2715 12.4282ZM24.7393 32.8325C24.8802 32.9038 25.0224 32.9725 25.1641 33.0424C24.7613 32.8434 24.3608 32.6402 23.9629 32.4321L24.7393 32.8325ZM28.5459 30.9458C28.6423 30.9977 28.7396 31.0483 28.8359 31.1001C28.7396 31.0483 28.6423 30.9977 28.5459 30.9458ZM20.0977 30.393C20.1718 30.4303 20.2454 30.4687 20.3193 30.5063C19.986 30.3366 19.651 30.169 19.3135 30.0073L20.0977 30.393ZM27.7686 27.2085C28.0371 27.3493 28.3082 27.485 28.5801 27.6196C28.3082 27.485 28.0371 27.3493 27.7686 27.2085ZM21.708 27.0083C21.8939 27.1086 22.082 27.205 22.2695 27.3022C21.9445 27.1337 21.6204 26.9635 21.3008 26.7846L21.708 27.0083ZM26.9482 26.7573C26.9643 26.7667 26.981 26.7752 26.9971 26.7846C26.9807 26.7751 26.9636 26.7659 26.9473 26.7563C26.7192 26.6216 26.4883 26.4921 26.2559 26.3657L26.9482 26.7573ZM22.9463 24.6997C23.3389 24.9 23.7339 25.0958 24.1299 25.2895C23.7339 25.0958 23.3389 24.9 22.9463 24.6997ZM28.5361 24.9008H28.5352H28.5361ZM16.8896 24.4594C17.025 24.5415 17.161 24.6221 17.2988 24.6997C17.161 24.6221 17.025 24.5415 16.8896 24.4594ZM27.5137 24.3208C27.2922 24.1866 27.067 24.0589 26.8398 23.935C27.0668 24.0588 27.2914 24.1867 27.5127 24.3208H27.5137ZM21.0127 23.6274C21.1174 23.6837 21.2204 23.7426 21.3203 23.8061C21.4339 23.8749 21.5482 23.9429 21.6631 24.0092C21.5482 23.9428 21.434 23.8749 21.3203 23.8061C21.2205 23.7426 21.1172 23.6836 21.0127 23.6274ZM19.5762 22.895C19.6756 22.9561 19.777 23.0142 19.8809 23.0688C19.777 23.0142 19.6756 22.9561 19.5762 22.895ZM19.1699 22.6079C19.2278 22.6566 19.2876 22.7025 19.3486 22.7465C19.2876 22.7025 19.2278 22.6566 19.1699 22.6079ZM28.5537 12.4331L28.5566 12.434C29.6888 12.4173 30.819 12.4282 31.9512 12.4282C32.1144 13.0077 32.2607 13.5941 32.3926 14.184L32.418 14.1782C32.6735 15.2127 32.9581 16.2392 33.2031 17.2758C31.5174 16.6518 29.9762 15.7092 28.3994 14.8569C27.2769 14.3061 26.1648 13.7361 25.0381 13.1958C24.6339 13.0115 24.2835 12.7376 23.9609 12.436C25.4917 12.4192 27.0229 12.4163 28.5537 12.4331ZM26.9219 16.6255C27.1771 16.7508 27.4305 16.8795 27.6826 17.0102C27.4305 16.8795 27.1771 16.7508 26.9219 16.6255ZM24.6289 15.4858C25.0647 15.7155 25.5055 15.9366 25.9492 16.1518C25.5055 15.9366 25.0647 15.7156 24.6289 15.4858ZM22.4902 14.309C22.8435 14.4986 23.1933 14.6961 23.5459 14.8784C23.7332 14.9931 23.9238 15.1021 24.1152 15.2094C23.9241 15.1022 23.7339 14.9929 23.5469 14.8784C23.194 14.6959 22.8438 14.4987 22.4902 14.309ZM20.8574 13.6264C21.1153 13.6899 21.3644 13.7777 21.6084 13.8794C21.3644 13.7778 21.1153 13.6898 20.8574 13.6264Z" fill="#27FE4F"/>
</svg>
